<svg xmlns="http://www.w3.org/2000/svg" viewBox="0 0 100 100">
  <path fill="#9D9D9C" d="M49.994.083C22.43.083.084 22.428.084 49.99S22.43 99.9 49.994 99.9c27.564 0 49.91-22.345 49.91-49.908S77.557.082 49.993.082z"/>
  <path fill="#878787" d="M35.633 61.944l39.863 30.948c14.613-8.705 24.407-24.656 24.407-42.9l-.002-.09L63.236 19.74 35.633 61.944z"/>
  <g fill="#999998">
    <path d="M50.742 17.002h-2.84l1.43-5.322-1.43-5.368h2.84l1.432 5.322M49.333 82.98h2.84l-1.43 5.324 1.43 5.368h-2.84L47.9 88.35M45.573 17.298l-2.807.445.582-5.48-2.254-5.08L43.9 6.74l2.247 5.033M54.502 82.685l2.806-.444-.58 5.482L58.98 92.8l-2.806.444-2.247-5.033"/>
    <path d="M45.573 17.298l-2.807.445.582-5.48-2.254-5.08L43.9 6.74l2.247 5.033M54.502 82.685l2.806-.444-.58 5.482L58.98 92.8l-2.806.444-2.247-5.033M40.513 18.4l-2.702.877-.282-5.504-3.02-4.663 2.702-.878 3.006 4.62M59.56 81.584l2.704-.878.283 5.505 3.02 4.663-2.702.878-3.007-4.618M35.688 20.278l-2.53 1.29-1.142-5.393-3.713-4.132 2.532-1.29 3.692 4.092M64.386 79.705l2.532-1.29 1.14 5.393 3.713 4.133-2.53 1.29-3.692-4.092M31.217 22.89l-2.3 1.67-1.97-5.15-4.313-3.5 2.3-1.67 4.286 3.464M68.858 77.095l2.3-1.67 1.97 5.148 4.312 3.5-2.298 1.67-4.287-3.464M27.21 26.166l-2.01 2.01-2.752-4.777-4.808-2.784 2.01-2.01 4.775 2.752M72.866 73.817l2.01-2.01 2.75 4.777 4.808 2.783-2.01 2.01-4.775-2.752M23.762 30.03l-1.67 2.3-3.464-4.288-5.184-1.996 1.67-2.3 5.147 1.97M76.312 69.952l1.67-2.298 3.465 4.287 5.184 1.998-1.67 2.298-5.147-1.97M20.963 34.387l-1.29 2.53-4.092-3.69-5.432-1.162 1.29-2.53 5.393 1.14M79.11 65.596l1.29-2.53 4.094 3.69 5.432 1.162-1.29 2.532-5.392-1.14M18.88 39.127l-.878 2.702-4.62-3.007-5.547-.297.878-2.702 5.505.283M81.194 60.856l.878-2.702 4.62 3.007 5.547.298-.878 2.702-5.505-.283M17.564 44.135l-.444 2.806-5.033-2.246-5.526.575.445-2.807 5.482-.582M82.51 55.848l.445-2.806 5.033 2.247 5.526-.575-.445 2.806-5.482.582M17.048 49.287v2.84l-5.323-1.43-5.367 1.43v-2.84l5.322-1.432M83.027 50.696v-2.84l5.322 1.43 5.367-1.43v2.84l-5.322 1.432M17.344 54.456l.444 2.807-5.48-.582-5.08 2.255-.443-2.806 5.033-2.248M82.73 45.527l-.444-2.806 5.48.582 5.08-2.253.444 2.805-5.033 2.247M18.445 59.516l.878 2.702-5.505.283-4.662 3.02-.878-2.7 4.62-3.007M81.63 40.468l-.878-2.703 5.505-.283 4.662-3.02.877 2.702-4.62 3.007M20.324 64.34l1.29 2.532-5.393 1.14-4.132 3.714-1.29-2.532 4.093-3.692M79.75 35.643l-1.29-2.532 5.394-1.14 4.132-3.712 1.29 2.53-4.092 3.693M22.934 68.812l1.67 2.3-5.148 1.97-3.5 4.313-1.67-2.3 3.464-4.286M77.14 31.17l-1.67-2.298 5.148-1.97 3.5-4.313 1.67 2.297-3.463 4.287M26.212 72.82l2.01 2.01-4.777 2.75-2.783 4.81-2.01-2.01 2.752-4.776M73.863 27.163l-2.01-2.01 4.777-2.75 2.783-4.808 2.01 2.01-2.752 4.775M30.076 76.267l2.3 1.67-4.288 3.464-1.997 5.185-2.297-1.67 1.97-5.147M69.998 23.717l-2.298-1.67 4.286-3.465 1.997-5.184 2.3 1.67-1.97 5.148M34.433 79.066l2.53 1.29-3.69 4.092-1.162 5.433-2.53-1.29 1.14-5.392M65.642 20.918l-2.53-1.29 3.69-4.093 1.162-5.432 2.53 1.29-1.14 5.392M39.173 81.15l2.702.877-3.007 4.62-.297 5.547-2.7-.878.282-5.505M60.902 18.835l-2.702-.878 3.006-4.62.297-5.547 2.702.877-.283 5.505M44.18 82.465l2.807.444-2.247 5.032.574 5.526-2.806-.445-.58-5.48M55.894 17.52l-2.806-.446 2.247-5.033-.575-5.525 2.806.445.582 5.48"/>
  </g>
  <path fill="#888" d="M64.6 22.572c1.65 0 2.256-.858 2.256-2.032 0-1.733-1.24-3.817-4.43-3.274-1.665-2.244-5.185-3.444-8.885-1.57-2.72-1.842-4.675-2.005-7.623-.093-2.83-1.066-5.274-.307-6.936 2.18-1.635 0-2.616 1.4-2.616 3.014 0 .968 1.028 1.775 2.424 1.775h25.81z"/>
  <path fill="#888" d="M62.558 19.027l3.39-6.742 7.965-6.45-1.06-1.3-8.204 6.403-4.085 7.54"/>
  <path fill="#BDBCBC" d="M67.297 29.177H65.24l-.067-3.99c0-2.373-1.942-4.314-4.315-4.314H40.02c-2.602 0-4.314 1.266-4.314 4.315L34.7 58.94c0 2.855 1.61 4.315 4.314 4.315h22.588c3.074 0 4.07-1.79 4.07-4.16l-.12-8.24c2.794-.124 6.824-.77 6.824-5.637v-10.94c0-3.177-1.34-5.1-5.08-5.1zm1.906 15.283c0 2.176-1.243 2.752-3.7 2.87l-.215-14.68h1.78c1.418 0 2.135.282 2.135 2.03v9.78z"/>
  <path fill="#4A4A49" d="M40.513 54.4l23.963-44.276L72.68 3.72l.91 1.407-7.815 6.344L41.9 55.178"/>
  <path fill="#D0D0D0" d="M59.328 58.966H41.14c-2.657 0-3.134-1.306-3.134-3.394l1.19-34.618 23.174.197v34.42c0 2.584-.895 3.396-3.042 3.396z"/>
  <path fill="#F1F1F1" d="M62.37 28.588v-6.823l-23.176-.197-.243 7.02"/>
  <path opacity=".1" fill="#4A4A49" d="M39.347 56.73l25.13-46.606 1.298 1.347-25.04 46.038"/>
  <g fill="#90908F">
    <path d="M33.735 67.886c.787 0 1.446.09 1.977.265.53.178.964.415 1.302.712.338.298.603.635.795 1.013.192.377.353.768.48 1.17l-3.036 1.398c-.177-.514-.366-.905-.567-1.17-.2-.265-.518-.398-.952-.398-.467 0-.837.133-1.11.398-.273.265-.41.583-.41.953 0 .466.106.82.315 1.06.208.24.482.482.82.723l2.12 1.566c.628.467 1.122 1.02 1.484 1.664.36.643.542 1.415.542 2.315 0 .852-.173 1.595-.52 2.23-.344.635-.81 1.16-1.397 1.58-.588.418-1.26.73-2.014.94-.756.207-1.543.312-2.363.312-1.173 0-2.194-.132-3.062-.397-.867-.266-1.638-.583-2.314-.953l1.688-2.99c.594.355 1.19.663 1.785.93.593.264 1.204.396 1.83.396.66 0 1.187-.14 1.58-.422.394-.28.59-.718.59-1.313 0-.466-.112-.847-.337-1.145-.225-.297-.523-.582-.892-.856l-1.71-1.254c-.387-.29-.724-.578-1.013-.868-.29-.29-.53-.603-.724-.94-.192-.337-.34-.707-.446-1.108-.105-.402-.157-.852-.157-1.35 0-.708.144-1.34.434-1.893.29-.555.69-1.02 1.205-1.398.513-.378 1.116-.667 1.807-.87.692-.198 1.448-.3 2.268-.3zM55.48 72.226c.242.514.414 1.017.52 1.506.104.49.156.92.156 1.29 0 .723-.076 1.458-.228 2.205-.154.748-.374 1.47-.663 2.17-.29.7-.643 1.354-1.06 1.965-.42.61-.893 1.14-1.423 1.59-1.157 1.013-2.54 1.52-4.146 1.52-.515 0-.97-.073-1.362-.217-.394-.144-.752-.418-1.073-.82-.465.322-.96.574-1.482.76-.522.184-1.097.276-1.723.276-1.06 0-1.91-.244-2.544-.735-.634-.49-.95-1.24-.95-2.254 0-.096.007-.232.023-.41.016-.175.037-.356.06-.54.024-.186.048-.366.073-.543l.06-.434 1.374-7.064h3.665l-1.374 7.16c-.032.128-.064.337-.095.626-.033.29-.05.498-.05.626 0 .257.058.467.17.627.112.16.28.24.507.24.386 0 .736-.225 1.05-.675.312-.45.586-1.017.82-1.7.232-.683.412-1.43.54-2.242.13-.812.194-1.57.194-2.28 0-.24-.02-.54-.06-.903-.04-.362-.1-.68-.18-.953l3.23-.795c.257.514.434 1.017.53 1.506.097.49.145.92.145 1.29 0 1.028-.144 2.065-.433 3.11-.29 1.045-.708 2-1.254 2.87.032.224.112.41.24.554.13.145.314.217.556.217.385 0 .766-.226 1.144-.676.377-.45.72-1.017 1.025-1.7.305-.683.554-1.43.747-2.242.193-.812.29-1.57.29-2.28 0-.24-.02-.54-.06-.903-.04-.363-.1-.68-.18-.954l3.224-.79zM59.893 84.473c-.852 0-1.51-.213-1.977-.64-.466-.425-.7-.99-.7-1.7 0-.11.01-.232.025-.36.016-.13.04-.258.073-.387l1.785-8.896h3.688l-1.567 7.98c-.033.21-.057.346-.073.41-.016.064-.024.137-.024.217 0 .112.015.213.048.3.033.09.122.134.266.134.08 0 .18-.01.302-.036.12-.024.232-.052.337-.084.105-.032.2-.064.29-.096.088-.032.14-.05.157-.05v2.605c-.258.128-.53.232-.82.312-.24.08-.518.148-.832.205-.314.058-.64.086-.977.086zm1.76-17.623c.69 0 1.197.173 1.52.518.32.346.482.816.482 1.41 0 .58-.206 1.082-.615 1.508-.41.426-.96.64-1.652.64-.69 0-1.198-.177-1.52-.53-.32-.354-.482-.812-.482-1.375 0-.577.2-1.084.603-1.518.4-.435.955-.652 1.663-.652zM69.85 83.823c-.29.112-.596.21-.918.29-.273.08-.587.148-.94.205-.354.056-.716.084-1.086.084-.9 0-1.57-.21-2.013-.626-.442-.418-.663-.98-.663-1.688 0-.112.008-.233.024-.362.016-.128.04-.257.073-.386l2.724-14.032 3.762-.482L68.21 80.47c-.033.21-.057.347-.073.41-.016.065-.024.138-.024.218 0 .112.02.213.06.3.04.09.14.134.302.134.096 0 .217-.012.36-.037.146-.024.29-.056.435-.096.145-.04.27-.077.374-.11.105-.03.173-.047.205-.047v2.58zM77.13 83.823c-.29.112-.595.21-.917.29-.273.08-.587.148-.94.205-.354.056-.716.084-1.086.084-.9 0-1.57-.21-2.013-.626-.442-.418-.663-.98-.663-1.688 0-.112.01-.233.025-.362.016-.128.04-.257.073-.386l2.724-14.032 3.76-.482-2.603 13.646c-.034.21-.057.346-.074.41-.016.064-.024.137-.024.217 0 .11.02.212.06.3.04.09.14.133.302.133.096 0 .217-.012.36-.037.146-.024.29-.056.435-.096.144-.04.268-.076.373-.108.105-.032.173-.048.206-.048v2.58z"/>
  </g>
  <g fill="#FFF">
    <path d="M31.734 65.886c.787 0 1.446.09 1.977.265.53.178.965.415 1.303.712.338.298.603.635.795 1.013.193.377.354.768.482 1.17l-3.037 1.398c-.177-.514-.366-.905-.567-1.17-.2-.265-.518-.398-.952-.398-.467 0-.837.133-1.11.398-.273.265-.41.583-.41.953 0 .466.106.82.315 1.06.207.24.48.482.82.723l2.12 1.566c.627.467 1.12 1.02 1.483 1.664.36.643.542 1.415.542 2.315 0 .852-.173 1.595-.52 2.23-.344.635-.81 1.16-1.397 1.58-.587.418-1.258.73-2.013.94-.755.207-1.543.312-2.363.312-1.173 0-2.194-.132-3.062-.397-.868-.266-1.64-.583-2.315-.953l1.688-2.99c.594.355 1.19.663 1.785.93.594.264 1.205.396 1.832.396.66 0 1.186-.14 1.58-.422.393-.28.59-.718.59-1.313 0-.466-.113-.847-.338-1.145-.225-.297-.523-.582-.892-.856l-1.712-1.254c-.386-.29-.723-.578-1.012-.868-.29-.29-.53-.603-.723-.94-.193-.337-.34-.707-.446-1.108-.105-.402-.157-.852-.157-1.35 0-.708.144-1.34.434-1.893.29-.555.69-1.02 1.205-1.398.513-.378 1.116-.667 1.807-.87.692-.198 1.448-.3 2.267-.3zM53.48 70.226c.242.514.414 1.017.52 1.506.104.49.156.92.156 1.29 0 .723-.076 1.458-.228 2.205-.154.748-.374 1.47-.663 2.17-.29.7-.643 1.354-1.06 1.965-.42.61-.893 1.14-1.423 1.59-1.157 1.013-2.54 1.52-4.146 1.52-.515 0-.97-.073-1.362-.217-.394-.144-.752-.418-1.073-.82-.465.322-.96.574-1.482.76-.522.184-1.097.276-1.723.276-1.06 0-1.91-.244-2.544-.735-.634-.49-.95-1.24-.95-2.254 0-.096.007-.232.023-.41.016-.175.037-.356.06-.54.024-.186.048-.366.073-.543l.06-.434 1.374-7.064h3.665l-1.374 7.16c-.032.128-.064.337-.095.626-.033.29-.05.498-.05.626 0 .257.058.467.17.627.112.16.28.24.507.24.386 0 .736-.225 1.05-.675.312-.45.586-1.017.82-1.7.232-.683.412-1.43.54-2.242.13-.812.194-1.57.194-2.28 0-.24-.02-.54-.06-.903-.04-.362-.1-.68-.18-.953l3.23-.795c.257.514.434 1.017.53 1.506.097.49.145.92.145 1.29 0 1.028-.144 2.065-.433 3.11-.29 1.045-.708 2-1.254 2.87.032.224.112.41.24.554.13.145.314.217.556.217.385 0 .766-.226 1.144-.676.377-.45.72-1.017 1.025-1.7.305-.683.554-1.43.747-2.242.193-.812.29-1.57.29-2.28 0-.24-.02-.54-.06-.903-.04-.363-.1-.68-.18-.954l3.224-.79zM57.893 82.473c-.852 0-1.51-.213-1.977-.64-.466-.425-.7-.99-.7-1.7 0-.11.01-.232.025-.36.016-.13.04-.258.073-.387l1.785-8.896h3.688l-1.567 7.98c-.033.21-.058.346-.074.41-.016.064-.024.137-.024.217 0 .112.015.213.048.3.032.09.12.134.265.134.08 0 .18-.01.302-.036.12-.024.232-.052.337-.084.105-.032.2-.064.29-.096.088-.032.14-.05.157-.05v2.605c-.257.128-.53.232-.82.312-.24.08-.517.148-.83.205-.314.058-.64.086-.977.086zm1.76-17.623c.69 0 1.197.173 1.52.518.32.346.482.816.482 1.41 0 .58-.206 1.082-.615 1.508-.41.426-.96.64-1.652.64-.69 0-1.198-.177-1.52-.53-.32-.354-.482-.812-.482-1.375 0-.577.2-1.084.603-1.518.4-.435.955-.652 1.663-.652zM67.85 81.823c-.29.112-.596.21-.918.29-.273.08-.587.148-.94.205-.354.056-.716.084-1.086.084-.9 0-1.57-.21-2.013-.626-.442-.418-.663-.98-.663-1.688 0-.112.008-.233.025-.362.016-.128.04-.257.073-.386l2.724-14.032 3.76-.482L66.21 78.47c-.033.21-.057.347-.073.41-.016.065-.024.138-.024.218 0 .112.02.213.06.3.04.09.14.134.302.134.096 0 .217-.012.36-.037.146-.024.29-.056.435-.096.145-.04.27-.077.374-.11.105-.03.173-.047.205-.047v2.58zM75.13 81.823c-.29.112-.595.21-.917.29-.273.08-.587.148-.94.205-.354.056-.716.084-1.086.084-.9 0-1.57-.21-2.013-.626-.442-.418-.663-.98-.663-1.688 0-.112.01-.233.025-.362.016-.128.04-.257.073-.386l2.724-14.032 3.76-.482-2.603 13.646c-.034.21-.057.346-.074.41-.016.064-.024.137-.024.217 0 .11.02.212.06.3.04.09.14.133.302.133.096 0 .217-.012.36-.037.146-.024.29-.056.435-.096.144-.04.268-.076.373-.108.105-.032.173-.048.206-.048v2.58z"/>
  </g>
  <g fill="#8E8E8D">
    <path d="M40.977 88.957c0 .423-.054.815-.163 1.176-.11.36-.27.678-.485.948-.215.27-.48.482-.794.635-.314.153-.674.23-1.08.23-.28 0-.56-.048-.832-.142-.273-.093-.554-.214-.842-.36l1.12-5.79 1.392-.177-.282 1.436c-.04.2-.1.407-.172.62-.073.216-.16.446-.26.693.317-.523.713-.785 1.19-.785.216 0 .402.046.558.137.156.09.28.21.375.352.094.143.163.306.207.49.045.182.067.36.067.537zm-1.63-.476c-.088 0-.18.063-.277.187-.097.123-.19.285-.282.484-.092.2-.176.423-.256.666-.08.244-.145.484-.2.718l-.087.36c.076.025.164.036.264.036.204 0 .375-.075.51-.225.135-.15.243-.33.322-.542.08-.212.135-.432.168-.66.032-.23.048-.42.048-.574 0-.125-.014-.23-.044-.32-.03-.085-.084-.13-.167-.13zM43.85 87.415c.3 0 .55.045.753.136.203.093.364.21.485.358.12.147.207.314.26.502.053.188.08.38.08.573 0 .41-.055.798-.164 1.16-.11.36-.268.677-.48.95-.212.274-.47.49-.78.65-.31.157-.662.237-1.062.237-.3 0-.55-.044-.75-.132-.198-.088-.36-.206-.483-.352-.125-.147-.213-.313-.265-.498-.054-.185-.08-.374-.08-.568 0-.406.055-.79.164-1.154.107-.364.268-.684.48-.96.21-.277.47-.496.78-.657.307-.165.66-.245 1.06-.245zm-.185.987c-.14 0-.267.07-.38.207-.11.136-.204.31-.277.52-.073.207-.13.434-.167.678-.037.244-.056.47-.056.683 0 .177.03.305.092.384.062.08.146.12.25.12.142 0 .267-.07.375-.208.11-.138.2-.31.274-.52.073-.208.13-.433.167-.674s.06-.464.06-.67c0-.182-.03-.314-.092-.396-.062-.083-.143-.124-.243-.124zM46.838 91.927c-.312 0-.552-.078-.723-.234-.17-.155-.256-.362-.256-.62 0-.042.002-.086.008-.133.006-.047.014-.094.027-.14l.652-3.252h1.348l-.573 2.917c-.012.076-.02.126-.026.15-.006.024-.01.05-.01.08 0 .04.007.077.02.11.01.032.043.048.096.048.03 0 .067-.005.11-.014.044-.01.086-.02.124-.032.038-.01.073-.024.105-.035.034-.012.053-.018.058-.018v.952c-.094.047-.193.085-.3.115-.087.03-.188.054-.303.075-.115.02-.234.03-.357.03zm.643-6.442c.254 0 .44.063.556.19.118.126.176.298.176.515 0 .212-.075.395-.225.55-.15.157-.35.235-.604.235-.253 0-.438-.065-.555-.194-.117-.128-.176-.295-.176-.502 0-.21.073-.396.22-.555.148-.16.35-.238.61-.238zM50.477 91.69c-.106.04-.218.075-.335.104-.1.03-.215.054-.344.075s-.26.03-.396.03c-.33 0-.575-.076-.736-.23-.162-.15-.242-.357-.242-.616 0-.04.003-.085.008-.132.006-.047.014-.094.027-.14l.995-5.13 1.374-.176-.953 4.988c-.01.076-.02.126-.026.15-.005.024-.008.05-.008.08 0 .04.008.077.022.11.014.032.05.048.11.048.035 0 .08-.005.132-.014.053-.008.106-.02.16-.035s.098-.027.136-.04c.038-.01.063-.018.075-.018v.944zM50.953 90.43c0-.407.054-.79.163-1.155.11-.364.27-.684.48-.96.212-.277.47-.496.78-.657.31-.162.662-.242 1.062-.242.493 0 .85.1 1.066.3.217.198.326.46.326.783 0 .246-.06.475-.18.687-.122.212-.292.396-.512.555-.22.16-.482.288-.785.388-.303.1-.632.167-.99.202 0 .024-.002.054-.006.092s-.005.072-.005.102c0 .147.04.253.124.317.082.065.185.097.308.097.083 0 .196-.018.34-.053.143-.035.288-.076.435-.124.17-.053.35-.115.537-.185l.3.9c-.2.1-.406.184-.618.254-.184.065-.384.122-.605.172-.22.05-.436.075-.648.075-.3 0-.55-.045-.75-.133-.198-.088-.36-.206-.483-.352-.124-.147-.212-.313-.264-.498-.05-.185-.077-.374-.077-.568zm2.274-1.993c-.153 0-.294.086-.423.26-.13.173-.23.398-.3.674.318-.04.56-.133.728-.277.167-.144.25-.283.25-.42 0-.156-.085-.236-.255-.236zM58.135 88.913c-.064-.065-.135-.124-.212-.176-.076-.053-.173-.08-.29-.08-.083 0-.16.032-.234.093-.074.062-.142.143-.203.243-.062.1-.116.212-.163.34-.047.125-.085.253-.115.382l-.423 2.15H55.13l.45-2.256c.03-.148.05-.284.066-.41.014-.128.022-.244.022-.35 0-.275-.037-.496-.11-.66-.073-.164-.128-.276-.163-.335l1.11-.432c.083.094.144.204.185.33.04.127.062.26.062.402 0 .064-.005.144-.013.238-.01.094-.026.235-.05.423.147-.5.326-.853.538-1.062.212-.21.473-.313.785-.313.17 0 .327.026.47.076.145.05.27.134.375.25l-.723 1.147zM59.174 89.61c.03-.148.052-.284.066-.41.014-.128.022-.244.022-.35 0-.275-.037-.496-.11-.66-.074-.164-.128-.276-.164-.335l1.11-.432c.083.094.145.204.186.33.04.127.062.26.062.402 0 .064-.003.142-.01.233-.005.092-.023.225-.052.4l.115-.246c.187-.41.4-.698.638-.86.238-.16.495-.242.772-.242.217 0 .403.046.56.137.155.09.28.21.373.352.094.143.163.306.208.49.044.18.067.36.067.536 0 .423-.054.815-.163 1.176-.11.36-.27.678-.485.948-.216.27-.48.48-.794.634-.315.153-.678.23-1.09.23-.075 0-.147-.004-.214-.01-.068-.005-.134-.014-.2-.026l-.334 1.736-1.375.176.81-4.21zm1.102 1.286c.076.024.168.035.274.035.2 0 .368-.074.503-.224.134-.15.242-.33.322-.542.08-.212.134-.432.167-.66.032-.23.048-.42.048-.574 0-.124-.013-.23-.04-.318-.026-.088-.08-.132-.163-.132-.088 0-.18.062-.277.186-.097.123-.192.285-.286.484-.095.2-.183.428-.264.683-.082.256-.154.513-.212.77l-.072.293zM65.458 91.69c-.106.04-.218.075-.335.104-.1.03-.215.054-.344.075-.13.02-.262.03-.397.03-.33 0-.574-.076-.736-.23-.162-.15-.242-.357-.242-.616 0-.04.003-.085.008-.132.006-.047.014-.094.027-.14l.996-5.13 1.374-.176-.952 4.988c-.01.076-.02.126-.026.15-.006.024-.01.05-.01.08 0 .04.01.077.023.11.015.032.05.048.11.048.035 0 .08-.005.132-.014.053-.008.106-.02.16-.035.052-.015.098-.027.136-.04.038-.01.063-.018.075-.018v.944zM67.14 91.945c-.222 0-.41-.046-.563-.137-.153-.09-.276-.21-.37-.352-.094-.145-.163-.306-.207-.486-.044-.18-.066-.36-.066-.542 0-.423.054-.815.163-1.176.108-.36.27-.677.485-.947.214-.27.478-.482.793-.635.314-.153.677-.23 1.09-.23.192 0 .367.017.523.05.156.032.316.086.48.163l.706.044-.37 1.92c-.03.142-.052.275-.067.4-.015.128-.022.244-.022.35 0 .246.03.456.088.63.06.172.147.35.264.532l-1.11.44c-.09-.1-.163-.222-.225-.366-.06-.144-.092-.304-.092-.48 0-.07.002-.15.005-.238.003-.09.01-.19.022-.31l-.115.248c-.188.406-.4.694-.64.864-.237.172-.494.257-.77.257zm.425-1.04c.088 0 .182-.065.282-.194.1-.128.196-.292.286-.492.09-.2.175-.42.25-.656.077-.238.14-.463.195-.675l.088-.396c-.065-.023-.153-.034-.264-.034-.205 0-.374.075-.506.225-.132.15-.238.332-.318.543-.08.212-.135.432-.167.662-.03.23-.047.42-.047.572 0 .124.013.23.04.318.025.085.08.13.162.13zM70.702 87.547h.863l.36-1.014 1.226-.273-.255 1.287h.9l-.16 1.022H72.7l-.37 1.867c-.01.03-.018.074-.02.132-.004.058-.006.102-.006.13 0 .06.018.104.053.134.035.03.103.044.203.044.053 0 .118-.007.198-.022.08-.015.157-.03.234-.048.088-.024.176-.05.264-.08v.997c-.105.04-.226.076-.36.105-.12.03-.254.053-.407.07-.154.018-.318.027-.495.027-.405 0-.693-.072-.863-.216-.17-.143-.256-.353-.256-.628 0-.047.003-.102.01-.163.004-.063.013-.12.025-.173l.442-2.176H70.7v-1.023zM73.574 90.43c0-.407.054-.79.163-1.155.108-.364.27-.684.48-.96.212-.277.47-.496.78-.657.31-.162.662-.242 1.062-.242.492 0 .848.1 1.065.3.217.198.326.46.326.783 0 .246-.06.475-.18.687-.12.212-.29.396-.51.555-.22.16-.483.288-.786.388-.303.1-.633.167-.99.202 0 .024-.002.054-.006.092-.003.038-.005.072-.005.102 0 .147.04.253.124.317.082.065.185.097.308.097.082 0 .196-.018.34-.053.143-.035.29-.076.435-.124.17-.053.35-.115.538-.185l.3.9c-.2.1-.406.184-.618.254-.183.065-.383.122-.604.172-.22.05-.436.075-.648.075-.3 0-.55-.045-.75-.133-.198-.088-.36-.206-.483-.352-.124-.147-.212-.313-.264-.498-.05-.185-.076-.374-.076-.568zm2.274-1.993c-.153 0-.294.086-.423.26-.13.173-.23.398-.3.674.318-.04.56-.133.728-.277.167-.144.25-.283.25-.42 0-.156-.085-.236-.255-.236z"/>
  </g>
  <g fill="#E3E3E3">
    <path d="M39.977 87.957c0 .423-.054.815-.163 1.176-.11.36-.27.678-.485.948-.215.27-.48.482-.794.635-.314.153-.674.23-1.08.23-.28 0-.56-.048-.832-.142-.273-.093-.554-.214-.842-.36l1.12-5.79 1.392-.177-.282 1.436c-.04.2-.1.407-.172.62-.073.216-.16.446-.26.693.317-.523.713-.785 1.19-.785.216 0 .402.046.558.137.156.09.28.21.375.352.094.143.163.306.207.49.045.182.067.36.067.537zm-1.63-.476c-.088 0-.18.063-.277.187-.097.123-.19.285-.282.484-.092.2-.176.423-.256.666-.08.244-.145.484-.2.718l-.087.36c.076.025.164.036.264.036.204 0 .375-.075.51-.225.135-.15.243-.33.322-.542.08-.212.135-.432.168-.66.032-.23.048-.42.048-.574 0-.125-.014-.23-.044-.32-.03-.085-.084-.13-.167-.13zM42.85 86.415c.3 0 .55.045.753.136.203.093.364.21.485.358.12.147.207.314.26.502.053.188.08.38.08.573 0 .41-.055.798-.164 1.16-.11.36-.268.677-.48.95-.212.274-.47.49-.78.65-.31.157-.662.237-1.062.237-.3 0-.55-.044-.75-.132-.198-.088-.36-.206-.483-.352-.125-.147-.213-.313-.265-.498-.054-.185-.08-.374-.08-.568 0-.406.055-.79.164-1.154.107-.364.268-.684.48-.96.21-.277.47-.496.78-.657.307-.165.66-.245 1.06-.245zm-.185.987c-.14 0-.267.07-.38.207-.11.136-.204.31-.277.52-.073.207-.13.434-.167.678-.037.244-.056.47-.056.683 0 .177.03.305.092.384.062.08.146.12.25.12.142 0 .267-.07.375-.208.11-.138.2-.31.274-.52.073-.208.13-.433.167-.674s.06-.464.06-.67c0-.182-.03-.314-.092-.396-.062-.083-.143-.124-.243-.124zM45.838 90.927c-.312 0-.552-.078-.723-.234-.17-.155-.256-.362-.256-.62 0-.042.002-.086.008-.133.006-.047.014-.094.027-.14l.652-3.252h1.348l-.573 2.917c-.012.076-.02.126-.026.15-.006.024-.01.05-.01.08 0 .04.007.077.02.11.01.032.043.048.096.048.03 0 .067-.005.11-.014.044-.01.086-.02.124-.032.038-.01.073-.024.105-.035.034-.012.053-.018.058-.018v.952c-.094.047-.193.085-.3.115-.087.03-.188.054-.303.075-.115.02-.234.03-.357.03zm.643-6.442c.254 0 .44.063.556.19.118.126.176.298.176.515 0 .212-.075.395-.225.55-.15.157-.35.235-.604.235-.253 0-.438-.065-.555-.194-.117-.128-.176-.295-.176-.502 0-.21.073-.396.22-.555.148-.16.35-.238.61-.238zM49.477 90.69c-.106.04-.218.075-.335.104-.1.03-.215.054-.344.075s-.26.03-.396.03c-.33 0-.575-.076-.736-.23-.162-.15-.242-.357-.242-.616 0-.04.003-.085.008-.132.006-.047.014-.094.027-.14l.995-5.13 1.374-.176-.953 4.988c-.01.076-.02.126-.026.15-.005.024-.008.05-.008.08 0 .04.008.077.022.11.014.032.05.048.11.048.035 0 .08-.005.132-.014.053-.008.106-.02.16-.035s.098-.027.136-.04c.038-.01.063-.018.075-.018v.944zM49.953 89.43c0-.407.054-.79.163-1.155.11-.364.27-.684.48-.96.212-.277.47-.496.78-.657.31-.162.662-.242 1.062-.242.493 0 .85.1 1.066.3.217.198.326.46.326.783 0 .246-.06.475-.18.687-.122.212-.292.396-.512.555-.22.16-.482.288-.785.388-.302.1-.632.167-.99.202 0 .024-.002.054-.006.092s-.005.072-.005.102c0 .147.04.253.124.317.082.065.185.097.308.097.083 0 .196-.018.34-.053.143-.035.288-.076.435-.124.17-.053.35-.115.537-.185l.3.9c-.2.1-.406.184-.618.254-.184.065-.384.122-.605.172-.22.05-.436.075-.648.075-.3 0-.55-.045-.75-.133-.198-.088-.36-.206-.483-.352-.124-.147-.212-.313-.264-.498-.05-.185-.077-.374-.077-.568zm2.274-1.993c-.153 0-.294.086-.423.26-.13.173-.23.398-.3.674.318-.04.56-.133.728-.277.167-.144.25-.283.25-.42 0-.156-.085-.236-.255-.236zM57.135 87.913c-.064-.065-.135-.124-.212-.176-.076-.053-.173-.08-.29-.08-.083 0-.16.032-.234.093-.074.062-.142.143-.203.243-.062.1-.116.212-.163.34-.047.125-.085.253-.115.382l-.423 2.15H54.13l.45-2.256c.03-.148.05-.284.066-.41.014-.128.022-.244.022-.35 0-.275-.037-.496-.11-.66-.073-.164-.128-.276-.163-.335l1.11-.432c.083.094.144.204.185.33.04.127.062.26.062.402 0 .064-.005.144-.013.238-.01.094-.026.235-.05.423.147-.5.326-.853.538-1.062.212-.21.473-.313.785-.313.17 0 .327.026.47.076.145.05.27.134.375.25l-.723 1.147zM58.174 88.61c.03-.148.052-.284.066-.41.014-.128.022-.244.022-.35 0-.275-.037-.496-.11-.66-.074-.164-.128-.276-.164-.335l1.11-.432c.083.094.145.204.186.33.04.127.062.26.062.402 0 .064-.003.142-.01.233-.005.092-.023.225-.052.4l.115-.246c.187-.41.4-.698.638-.86.238-.16.495-.242.772-.242.217 0 .403.046.56.137.155.09.28.21.373.352.094.143.163.306.208.49.044.18.067.36.067.536 0 .423-.054.815-.163 1.176-.11.36-.27.678-.485.948-.216.27-.48.48-.794.634-.315.153-.678.23-1.09.23-.075 0-.147-.004-.214-.01-.068-.005-.134-.014-.2-.026l-.334 1.736-1.375.176.81-4.21zm1.102 1.286c.076.024.168.035.274.035.2 0 .368-.074.503-.224.134-.15.242-.33.322-.542.08-.212.134-.432.167-.66.032-.23.048-.42.048-.574 0-.124-.013-.23-.04-.318-.026-.088-.08-.132-.163-.132-.088 0-.18.062-.277.186-.097.123-.192.285-.286.484-.095.2-.183.428-.264.683-.082.256-.154.513-.212.77l-.072.293zM64.458 90.69c-.106.04-.218.075-.335.104-.1.03-.215.054-.344.075-.13.02-.262.03-.397.03-.33 0-.575-.076-.736-.23-.162-.15-.242-.357-.242-.616 0-.04.003-.085.008-.132.006-.047.014-.094.027-.14l.996-5.13 1.374-.176-.952 4.988c-.01.076-.02.126-.026.15-.006.024-.01.05-.01.08 0 .04.01.077.023.11.015.032.05.048.11.048.035 0 .08-.005.132-.014.053-.008.106-.02.16-.035.052-.015.098-.027.136-.04.038-.01.063-.018.075-.018v.944zM66.14 90.945c-.222 0-.41-.046-.563-.137-.153-.09-.276-.21-.37-.352-.094-.145-.163-.306-.207-.486-.044-.18-.066-.36-.066-.542 0-.423.054-.815.163-1.176.108-.36.27-.677.485-.947.214-.27.478-.482.793-.635.314-.153.677-.23 1.09-.23.192 0 .367.017.523.05.156.032.316.086.48.163l.706.044-.37 1.92c-.03.142-.052.275-.067.4-.015.128-.022.244-.022.35 0 .246.03.456.088.63.06.172.147.35.264.532l-1.11.44c-.09-.1-.163-.222-.225-.366-.06-.144-.092-.304-.092-.48 0-.07.002-.15.005-.238.003-.09.01-.19.022-.31l-.115.248c-.188.406-.4.694-.64.864-.237.172-.494.257-.77.257zm.425-1.04c.088 0 .182-.065.282-.194.1-.128.196-.292.286-.492.09-.2.175-.42.25-.656.077-.238.14-.463.195-.675l.088-.396c-.065-.023-.153-.034-.264-.034-.205 0-.374.075-.506.225-.132.15-.238.332-.318.543-.08.212-.135.432-.167.662-.03.23-.047.42-.047.572 0 .124.013.23.04.318.025.085.08.13.162.13zM69.702 86.547h.863l.36-1.014 1.226-.273-.255 1.287h.9l-.16 1.022H71.7l-.37 1.867c-.01.03-.018.074-.02.132-.004.058-.006.102-.006.13 0 .06.018.104.053.134.035.03.103.044.203.044.053 0 .118-.007.198-.022.08-.015.157-.03.234-.048.088-.024.176-.05.264-.08v.997c-.105.04-.226.076-.36.105-.12.03-.254.053-.407.07-.154.018-.318.027-.495.027-.405 0-.693-.072-.863-.216-.17-.143-.256-.353-.256-.628 0-.047.003-.102.01-.163.004-.063.013-.12.025-.173l.442-2.176H69.7v-1.023zM72.574 89.43c0-.407.054-.79.163-1.155.108-.364.27-.684.48-.96.212-.277.47-.496.78-.657.31-.162.662-.242 1.062-.242.492 0 .848.1 1.065.3.217.198.326.46.326.783 0 .246-.06.475-.18.687-.12.212-.29.396-.51.555-.22.16-.483.288-.786.388-.303.1-.633.167-.99.202 0 .024-.002.054-.006.092-.003.038-.005.072-.005.102 0 .147.04.253.124.317.082.065.185.097.308.097.082 0 .196-.018.34-.053.143-.035.29-.076.435-.124.17-.053.35-.115.538-.185l.3.9c-.2.1-.406.184-.618.254-.183.065-.383.122-.604.172-.22.05-.436.075-.648.075-.3 0-.55-.045-.75-.133-.198-.088-.36-.206-.483-.352-.124-.147-.212-.313-.264-.498-.05-.185-.076-.374-.076-.568zm2.274-1.993c-.153 0-.294.086-.423.26-.13.173-.23.398-.3.674.318-.04.56-.133.728-.277.167-.144.25-.283.25-.42 0-.156-.085-.236-.255-.236z"/>
  </g>
  <path fill="#FFF" d="M63.605 21.79c1.772 0 2.47-1.157 2.47-2.33 0-1.733-1.195-3.37-4.43-2.977-1.666-2.244-5.186-3.444-8.886-1.57-2.314-1.817-5.028-2.037-7.625-.093-2.83-1.066-5.506-.574-7.01 2-1.596-.115-2.543 1.185-2.543 2.8 0 .967.867 2.168 2.263 2.168h25.76z"/>
</svg>
